<svg width="16" height="16" viewBox="0 0 16 16" fill="none" xmlns="http://www.w3.org/2000/svg">
<g clip-path="url(#clip0_769_90226)">
<path d="M1.66602 8.0013C1.66602 5.01574 1.66602 3.52296 2.59351 2.59546C3.52101 1.66797 5.01379 1.66797 7.99935 1.66797C10.9849 1.66797 12.4777 1.66797 13.4052 2.59546C14.3327 3.52296 14.3327 5.01574 14.3327 8.0013C14.3327 10.9869 14.3327 12.4796 13.4052 13.4071C12.4777 14.3346 10.9849 14.3346 7.99935 14.3346C5.01379 14.3346 3.52101 14.3346 2.59351 13.4071C1.66602 12.4796 1.66602 10.9869 1.66602 8.0013Z" stroke="#1746A2" stroke-width="1.5"/>
<path d="M5.33398 9.16862C5.33398 9.16862 6.40065 9.77697 6.93398 10.6686C6.93398 10.6686 8.53398 7.16862 10.6673 6.00195" stroke="#1746A2" stroke-width="1.5" stroke-linecap="round" stroke-linejoin="round"/>
</g>
<defs>
<clipPath id="clip0_769_90226">
<rect width="16" height="16" fill="white" transform="translate(0 0.00195312)"/>
</clipPath>
</defs>
</svg>
